# xmcd
#
# Track frame offsets: 
#        150
#        18772
#        36205
#        54732
#        65492
#        78017
#        91755
#        105600
#        118187
#        139012
#        150315
#        162425
#        177685
#        194720
#        210027
#        228472
#        250570
#        271802
#
# Disc length: 3903 seconds
#
# Revision: 1
# Processed by: cddbd v1.5.2PL0 Copyright (c) Steve Scherf et al.
# Submitted via: ExactAudioCopy v1.0b3
#
DISCID=e60f3d12
DTITLE=The Godfathers - Birth, School, Work, Death: The Best Of The Go
DTITLE=dfathers
DYEAR=1996
DGENRE=General Alternative Rock
TTITLE0=Birth, School, Work, Death
TTITLE1=She Gives Me Love
TTITLE2=Unreal World
TTITLE3=Just Because You're Not Paranoid Doesn't Mean To Say They're N
TTITLE3=ot Going To Get You!
TTITLE4=Cause I Said So
TTITLE5=Angela
TTITLE6=Walking Talking Johnny Cash Blues
TTITLE7=Miss That Girl
TTITLE8=This Is War
TTITLE9=If I Only Had Time
TTITLE10=Love Is Dead
TTITLE11=Another You
TTITLE12=Gone To Texas
TTITLE13=Don't Let Me Down
TTITLE14=Lonely Man
TTITLE15=When I'm Coming Down
TTITLE16=Cold Turkey
TTITLE17=Birth, School, Work, Death [Extended Remix]
EXTD=
EXTT0=
EXTT1=
EXTT2=
EXTT3=
EXTT4=
EXTT5=
EXTT6=
EXTT7=
EXTT8=
EXTT9=
EXTT10=
EXTT11=
EXTT12=
EXTT13=
EXTT14=
EXTT15=
EXTT16=
EXTT17=
PLAYORDER=
